<svg width="32" height="32" viewBox="0 0 32 32" fill="none" xmlns="http://www.w3.org/2000/svg">
<path d="M25.6 0C22.0656 0 19.2 2.8656 19.2 6.4C19.2 9.3776 21.2448 11.8592 24 12.5728V19.4256C23.4192 19.576 22.8736 19.8064 22.3664 20.104L11.8944 9.632C12.456 8.68 12.8 7.584 12.8 6.4C12.8 2.8656 9.9344 0 6.4 0C2.8656 0 0 2.8656 0 6.4C0 9.3776 2.0448 11.8592 4.8 12.5728V19.4256C2.0448 20.1408 0 22.6224 0 25.6C0 29.1344 2.8656 32 6.4 32C9.9344 32 12.8 29.1344 12.8 25.6C12.8 22.6224 10.7552 20.1408 8 19.4272V12.5744C8.5824 12.424 9.128 12.1936 9.6336 11.8944L20.1056 22.368C19.544 23.3184 19.2 24.4144 19.2 25.6C19.2 29.1344 22.0656 32 25.6 32C29.1344 32 32 29.1344 32 25.6C32 22.6224 29.9552 20.1408 27.2 19.4272V12.5744C29.9552 11.8608 32 9.3792 32 6.4016C32 2.8656 29.1344 0 25.6 0Z" fill="#2FBAD9"/>
</svg>
