<svg width="483" height="169" viewBox="0 0 483 169" fill="none" xmlns="http://www.w3.org/2000/svg">
<path d="M135.134 0C116.477 0 101.35 15.1339 101.35 33.8C101.35 49.5255 112.144 62.6314 126.688 66.4001V102.591C123.622 103.386 120.742 104.603 118.064 106.174L62.7864 50.869C65.7509 45.8413 67.5668 40.053 67.5668 33.8C67.5668 15.1339 52.4403 0 33.7834 0C15.1265 0 0 15.1339 0 33.8C0 49.5255 10.7938 62.6314 25.3375 66.4001V102.591C10.7938 106.369 0 119.475 0 135.2C0 153.866 15.1265 169 33.7834 169C52.4403 169 67.5668 153.866 67.5668 135.2C67.5668 119.475 56.773 106.369 42.2292 102.6V66.4086C45.3035 65.6143 48.1835 64.3975 50.8524 62.8173L106.13 118.131C103.166 123.15 101.35 128.939 101.35 135.2C101.35 153.866 116.477 169 135.134 169C153.79 169 168.917 153.866 168.917 135.2C168.917 119.475 158.123 106.369 143.579 102.6V66.4086C158.123 62.6399 168.917 49.5339 168.917 33.8085C168.917 15.134 153.79 0 135.134 0Z" fill="#2FBAD9"/>
<path d="M212.632 100.104C223.299 100.104 230.936 101.939 235.544 105.608C240.237 109.192 242.584 114.568 242.584 121.736C242.669 127.539 241.219 131.891 238.232 134.792C235.245 137.608 230.083 139.016 222.744 139.016H187.416V128.392H217.496C220.397 128.392 222.232 127.795 223 126.6C223.853 125.32 224.28 123.571 224.28 121.352C224.195 118.365 223.299 116.317 221.592 115.208C219.971 114.013 217.197 113.416 213.272 113.416C209.773 113.416 207.043 113.885 205.08 114.824C203.117 115.763 201.752 117.555 200.984 120.2C200.216 122.845 199.832 126.685 199.832 131.72C199.832 137.011 200.301 141.107 201.24 144.008C202.179 146.824 203.757 148.787 205.976 149.896C208.28 151.005 211.437 151.56 215.448 151.56C218.349 151.56 221.933 151.475 226.2 151.304C230.552 151.048 234.904 150.664 239.256 150.152L241.048 161.8C238.573 162.995 235.757 163.933 232.6 164.616C229.443 165.299 226.2 165.768 222.872 166.024C219.544 166.365 216.344 166.536 213.272 166.536C205.251 166.536 198.765 165.384 193.816 163.08C188.952 160.691 185.411 157.064 183.192 152.2C181.059 147.336 179.992 141.107 179.992 133.512C179.992 125.235 181.101 118.664 183.32 113.8C185.539 108.936 189.037 105.437 193.816 103.304C198.595 101.171 204.867 100.104 212.632 100.104ZM279.634 84.232V144.776C279.634 147.08 280.146 148.744 281.17 149.768C282.279 150.707 284.071 151.176 286.546 151.176H294.738L296.786 163.976C295.25 164.488 293.373 164.915 291.154 165.256C288.935 165.683 286.717 165.981 284.498 166.152C282.279 166.408 280.402 166.536 278.866 166.536C273.149 166.536 268.669 165 265.426 161.928C262.269 158.856 260.69 154.547 260.69 149L260.562 84.232H279.634ZM297.298 101.768V114.184H249.554V102.408L261.842 101.768H297.298ZM343.782 74.888C350.779 74.888 356.71 75.656 361.574 77.192C366.438 78.6427 370.321 81.1173 373.222 84.616C376.209 88.0293 378.385 92.7227 379.75 98.696C381.115 104.584 381.798 111.965 381.798 120.84C381.798 129.715 381.115 137.139 379.75 143.112C378.385 149 376.209 153.693 373.222 157.192C370.321 160.605 366.438 163.08 361.574 164.616C356.71 166.067 350.779 166.792 343.782 166.792C336.785 166.792 330.854 166.067 325.99 164.616C321.126 163.08 317.201 160.605 314.214 157.192C311.227 153.693 309.051 149 307.686 143.112C306.321 137.139 305.638 129.715 305.638 120.84C305.638 111.965 306.321 104.584 307.686 98.696C309.051 92.7227 311.227 88.0293 314.214 84.616C317.201 81.1173 321.126 78.6427 325.99 77.192C330.854 75.656 336.785 74.888 343.782 74.888ZM343.782 90.376C339.259 90.376 335.718 91.272 333.158 93.064C330.683 94.856 328.891 97.9707 327.782 102.408C326.758 106.76 326.246 112.904 326.246 120.84C326.246 128.691 326.758 134.835 327.782 139.272C328.891 143.709 330.683 146.824 333.158 148.616C335.718 150.408 339.259 151.304 343.782 151.304C348.219 151.304 351.675 150.408 354.15 148.616C356.71 146.824 358.502 143.709 359.526 139.272C360.635 134.835 361.19 128.691 361.19 120.84C361.19 112.904 360.635 106.76 359.526 102.408C358.502 97.9707 356.71 94.856 354.15 93.064C351.675 91.272 348.219 90.376 343.782 90.376ZM425.891 75.016C430.243 75.016 434.979 75.272 440.099 75.784C445.219 76.2107 450.211 77.1493 455.075 78.6L453.795 91.528C450.04 91.4427 445.646 91.3573 440.611 91.272C435.576 91.1867 430.627 91.144 425.763 91.144C423.374 91.144 421.326 91.2293 419.619 91.4C417.998 91.4853 416.675 91.8267 415.651 92.424C414.627 92.936 413.902 93.7467 413.475 94.856C413.048 95.9653 412.835 97.5013 412.835 99.464C412.835 102.451 413.518 104.627 414.883 105.992C416.334 107.357 418.766 108.595 422.179 109.704L439.203 115.208C446.286 117.597 451.192 120.84 453.923 124.936C456.654 129.032 458.019 134.408 458.019 141.064C458.019 146.099 457.422 150.28 456.227 153.608C455.032 156.936 453.155 159.539 450.595 161.416C448.035 163.293 444.664 164.616 440.483 165.384C436.302 166.237 431.182 166.664 425.123 166.664C422.222 166.664 418.083 166.451 412.707 166.024C407.331 165.683 401.187 164.744 394.275 163.208L395.555 149.384C400.59 149.469 404.942 149.597 408.611 149.768C412.366 149.853 415.566 149.939 418.211 150.024C420.856 150.024 423.16 150.024 425.123 150.024C428.536 150.024 431.182 149.811 433.059 149.384C435.022 148.957 436.387 148.104 437.155 146.824C437.923 145.544 438.307 143.709 438.307 141.32C438.307 139.272 438.008 137.651 437.411 136.456C436.899 135.176 436.003 134.195 434.723 133.512C433.528 132.744 431.864 132.061 429.731 131.464L411.811 125.32C405.07 122.845 400.291 119.603 397.475 115.592C394.659 111.581 393.251 106.291 393.251 99.72C393.251 94.6 393.848 90.4613 395.043 87.304C396.323 84.0613 398.243 81.544 400.803 79.752C403.448 77.96 406.819 76.7227 410.915 76.04C415.096 75.3573 420.088 75.016 425.891 75.016Z" fill="#2FBAD9"/>
</svg>
